<svg xmlns="http://www.w3.org/2000/svg" width="50" height="50" viewBox="0 0 50 50" fill="none">
  <path d="M24.5 23C31.4036 23 37 17.8513 37 11.5C37 5.14873 31.4036 0 24.5 0C17.5964 0 12 5.14873 12 11.5C12 17.8513 17.5964 23 24.5 23Z" fill="white"/>
  <path d="M12.5 40C19.4036 40 25 34.8513 25 28.5C25 22.1487 19.4036 17 12.5 17C5.59644 17 0 22.1487 0 28.5C0 34.8513 5.59644 40 12.5 40Z" fill="white"/>
  <path d="M37.5 40C44.4036 40 50 34.8513 50 28.5C50 22.1487 44.4036 17 37.5 17C30.5964 17 25 22.1487 25 28.5C25 34.8513 30.5964 40 37.5 40Z" fill="white"/>
  <path d="M20.3684 34L17 50H33L29.6316 34H20.3684Z" fill="white"/>
  <path d="M28.2609 23H20.6522V34H28.2609V23Z" fill="white"/>
</svg>
